<svg width="48" height="48" viewBox="0 0 48 48" fill="none" xmlns="http://www.w3.org/2000/svg">
<circle cx="24" cy="24" r="24" fill="#141318"/>
<g clip-path="url(#clip0_209_4180)">
<g style="mix-blend-mode:overlay">
<path d="M33.6002 18.2895L20.8382 10.9339C20.7197 10.8656 20.5895 10.8182 20.4537 10.8018C18.7443 10.5944 17.7249 11.3153 17.6807 12.6803V27.4905C17.6807 27.8934 17.8968 28.2654 18.2468 28.4649L32.5724 36.6294C33.6385 36.8842 34.4625 36.1911 34.4625 35.8504V20.1824C34.5013 18.9538 34.119 18.5609 33.6002 18.2895Z" fill="white"/>
</g>
<g style="mix-blend-mode:overlay">
<path d="M24.316 22.1054L16.4616 17.6179C15.2967 16.9869 15.5183 18.443 15.5183 19.5108V30.1096C15.4463 30.5735 15.5354 30.8135 15.9917 31.1956L23.4507 35.5758C25.4232 36.7886 24.9077 35.6884 24.9077 34.2816V24.2398C24.939 22.8707 24.8012 22.4222 24.316 22.1054Z" fill="white"/>
</g>
<g style="mix-blend-mode:overlay">
<path d="M16.2254 37.3142C16.9049 37.7026 17.6814 37.2657 17.6814 36.4892V28.675V28.3352C17.6814 28.0926 17.4871 28.0316 17.4871 28.0316L13.9759 26.0541C13.9759 26.0541 13.8587 25.9478 13.6528 26.0541C13.4338 26.1671 13.4589 26.3938 13.4589 26.3938V35.0436C13.4588 35.7127 13.5558 35.7721 14.0413 36.0522L16.2254 37.3142Z" fill="white"/>
</g>
</g>
<defs>
<clipPath id="clip0_209_4180">
<rect width="21.0841" height="26.6916" fill="white" transform="translate(13.458 10.7666)"/>
</clipPath>
</defs>
</svg>
